<?xml version="1.0" standalone="no"?>
<!DOCTYPE svg PUBLIC "-//W3C//DTD SVG 20010904//EN"
 "http://www.w3.org/TR/2001/REC-SVG-20010904/DTD/svg10.dtd">
<svg version="1.0" xmlns="http://www.w3.org/2000/svg"
 width="578.000000pt" height="454.000000pt" viewBox="0 0 578.000000 454.000000"
 preserveAspectRatio="xMidYMid meet">

<g transform="translate(0.000000,454.000000) scale(0.100000,-0.100000)"
fill="#000000" stroke="none">
<path d="M1105 4469 c-11 -6 -40 -34 -64 -63 -24 -28 -74 -85 -111 -126 -37
-41 -149 -169 -250 -285 -101 -115 -204 -233 -229 -260 -51 -56 -114 -127
-285 -324 -142 -164 -144 -173 -62 -259 53 -56 175 -195 870 -987 399 -454
650 -739 1001 -1135 139 -157 313 -353 386 -437 251 -284 449 -502 471 -517
27 -19 57 -20 78 -3 27 22 528 580 885 987 60 69 112 127 115 130 3 3 52 59
110 125 115 130 733 828 784 885 17 19 115 130 217 245 103 116 297 334 433
485 136 151 249 285 252 297 14 53 0 73 -201 288 -110 118 -181 197 -580 644
-110 122 -218 243 -240 268 l-40 44 -1760 4 c-1281 4 -1765 2 -1780 -6z m1649
-175 c30 -12 17 -49 -34 -98 -27 -26 -50 -43 -50 -38 0 5 7 15 15 22 12 10 13
16 4 26 -6 8 -16 14 -21 14 -6 0 -5 -7 2 -15 9 -11 9 -15 1 -15 -6 0 -14 7
-17 15 -4 8 -10 12 -15 9 -5 -3 -9 -1 -9 4 0 5 18 9 40 8 28 -1 40 -5 40 -16
0 -13 2 -13 9 0 6 8 7 18 5 22 -3 4 2 8 11 8 20 0 32 30 15 40 -7 4 -27 6 -44
5 -17 -2 -129 -4 -248 -5 -120 0 -218 -5 -218 -9 0 -5 -9 -7 -19 -4 -23 6 -88
-56 -97 -93 -3 -13 -10 -21 -15 -18 -5 3 -6 -1 -3 -9 3 -8 -2 -19 -10 -26 -8
-7 -12 -20 -9 -29 3 -12 2 -13 -4 -5 -6 8 -27 -20 -66 -88 -31 -54 -57 -106
-57 -114 0 -8 -4 -15 -10 -15 -21 0 -29 -36 -15 -76 10 -29 15 -35 20 -22 4 9
2 26 -4 37 -10 17 -9 20 4 15 8 -4 15 -18 15 -34 0 -16 6 -30 13 -33 6 -3 -3
-5 -20 -4 -26 0 -33 4 -33 19 0 12 -4 16 -11 12 -8 -4 -9 1 -4 16 5 15 4 20
-4 16 -6 -4 -11 -16 -11 -27 0 -10 -5 -19 -11 -19 -6 0 -9 -8 -7 -17 2 -10 -5
-23 -17 -30 -11 -7 -14 -12 -7 -13 6 0 12 -5 12 -11 0 -6 -7 -9 -15 -5 -15 5
-22 -9 -7 -17 4 -2 2 -3 -4 -1 -6 1 -17 -9 -23 -22 -16 -36 -13 -52 5 -29 17
21 17 20 -9 -37 -16 -36 -14 -68 5 -68 5 0 6 -4 3 -10 -3 -5 1 -10 10 -10 8 0
18 -7 21 -15 7 -18 26 -20 23 -2 -3 26 2 35 24 42 12 4 25 7 29 6 9 -1 2 54
-8 70 -5 8 -3 9 6 4 7 -4 15 -3 19 3 4 7 11 4 19 -8 7 -12 8 -20 2 -20 -5 0
-10 5 -10 12 0 19 -14 -1 -15 -22 -2 -23 6 -25 23 -8 7 7 12 9 12 5 0 -11 -58
-67 -105 -102 -22 -17 -51 -41 -65 -55 -63 -61 -91 -80 -118 -80 -50 0 -53 16
-14 83 19 34 66 120 104 192 38 71 74 133 81 137 6 4 9 8 5 8 -4 0 5 21 20 48
16 26 31 54 35 62 4 8 15 29 26 45 10 17 27 46 38 66 116 205 169 284 202 304
9 6 104 12 211 15 107 3 227 7 267 8 39 1 78 -1 87 -4z m-794 -11 c0 -5 -16
-35 -36 -68 -67 -110 -180 -309 -239 -420 -56 -105 -146 -272 -216 -400 -18
-33 -37 -63 -43 -67 -6 -4 -253 -8 -548 -8 -494 0 -538 1 -538 17 0 21 34 65
140 183 47 52 153 172 235 265 82 94 152 172 155 175 3 3 70 78 149 168 l143
162 399 0 c219 0 399 -3 399 -7z m1363 0 c-29 -2 -77 -2 -105 0 -29 2 -6 3 52
3 58 0 81 -1 53 -3z m104 1 c-3 -3 -12 -4 -19 -1 -8 3 -5 6 6 6 11 1 17 -2 13
-5z m91 -1 c-16 -2 -40 -2 -55 0 -16 2 -3 4 27 4 30 0 43 -2 28 -4z m1095 -37
c53 -55 83 -88 237 -261 68 -77 147 -165 175 -195 27 -30 88 -98 135 -150 47
-52 110 -122 140 -155 107 -115 123 -137 108 -146 -14 -9 -756 -9 -950 0 -102
5 -119 9 -132 26 -9 11 -13 27 -10 35 11 27 90 340 148 580 31 129 62 246 68
260 7 14 13 28 15 32 2 3 -154 7 -347 8 -231 0 -350 -3 -350 -9 0 -6 30 -63
66 -126 37 -64 64 -118 61 -121 -3 -3 -11 7 -19 23 -8 15 -37 69 -65 118 -27
50 -52 98 -56 108 -6 16 15 17 364 17 l370 0 42 -44z m-1985 17 c-10 -2 -28
-2 -40 0 -13 2 -5 4 17 4 22 1 32 -1 23 -4z m109 1 c-3 -3 -12 -4 -19 -1 -8 3
-5 6 6 6 11 1 17 -2 13 -5z m-393 -44 c-6 -5 -24 21 -24 34 0 6 6 1 14 -10 8
-10 12 -21 10 -24z m64 15 c-3 -3 -9 2 -12 12 -6 14 -5 15 5 6 7 -7 10 -15 7
-18z m2109 19 c-3 -3 -12 -4 -19 -1 -8 3 -5 6 6 6 11 1 17 -2 13 -5z m-2276
-31 c-12 -20 -14 -14 -5 12 4 9 9 14 11 11 3 -2 0 -13 -6 -23z m329 11 c0 -8
-5 -12 -10 -9 -6 4 -8 11 -5 16 9 14 15 11 15 -7z m103 9 c-7 -2 -19 -2 -25 0
-7 3 -2 5 12 5 14 0 19 -2 13 -5z m-153 -13 c0 -5 -2 -10 -4 -10 -3 0 -8 5
-11 10 -3 6 -1 10 4 10 6 0 11 -4 11 -10z m-354 -45 c-9 -9 -17 -11 -21 -5 -3
5 -2 10 4 10 5 0 13 10 17 23 7 18 8 19 12 5 2 -10 -3 -25 -12 -33z m104 25
c0 -5 -5 -10 -11 -10 -5 0 -7 5 -4 10 3 6 8 10 11 10 2 0 4 -4 4 -10z m120 0
c0 -5 -2 -10 -4 -10 -3 0 -8 5 -11 10 -3 6 -1 10 4 10 6 0 11 -4 11 -10z m-57
-40 c3 -11 1 -20 -4 -20 -5 0 -9 9 -9 20 0 11 2 20 4 20 2 0 6 -9 9 -20z m57
16 c0 -2 -9 -6 -20 -9 -11 -3 -20 -1 -20 4 0 5 9 9 20 9 11 0 20 -2 20 -4z
m265 -5 c3 -5 1 -12 -5 -16 -5 -3 -10 1 -10 9 0 18 6 21 15 7z m-517 -41 c-2
-16 0 -32 6 -35 7 -3 7 -7 -1 -11 -20 -9 -15 -27 5 -19 12 4 14 3 6 -5 -16
-17 -43 -1 -40 23 4 32 17 77 23 77 3 0 3 -13 1 -30z m72 14 c0 -8 -4 -12 -10
-9 -5 3 -10 10 -10 16 0 5 5 9 10 9 6 0 10 -7 10 -16z m184 -9 c-4 -8 -10 -15
-15 -15 -5 0 -9 7 -9 15 0 8 7 15 15 15 9 0 12 -6 9 -15z m69 8 c-7 -2 -21 -2
-30 0 -10 3 -4 5 12 5 17 0 24 -2 18 -5z m160 0 c-7 -2 -21 -2 -30 0 -10 3 -4
5 12 5 17 0 24 -2 18 -5z m-350 -45 c-8 -59 -13 -61 -13 -5 0 26 4 47 9 47 5
0 7 -19 4 -42z m377 27 c-17 -21 -90 -78 -90 -71 0 3 10 15 23 27 19 19 19 21
3 15 -17 -6 -17 -5 -5 11 12 15 12 16 -4 10 -10 -4 -16 -3 -12 2 10 17 43 9
37 -8 -4 -11 3 -9 24 6 35 27 41 28 24 8z m-323 -27 c-3 -7 -5 -2 -5 12 0 14
2 19 5 13 2 -7 2 -19 0 -25z m23 -32 c-7 -7 -10 4 -9 30 1 39 1 39 10 9 5 -18
5 -33 -1 -39z m90 54 c0 -5 -7 -10 -15 -10 -8 0 -15 5 -15 10 0 6 7 10 15 10
8 0 15 -4 15 -10z m37 4 c-3 -3 -12 -4 -19 -1 -8 3 -5 6 6 6 11 1 17 -2 13 -5z
m53 -25 c0 -5 -4 -9 -10 -9 -5 0 -10 7 -10 16 0 8 5 12 10 9 6 -3 10 -10 10
-16z m-110 -9 c0 -5 -4 -10 -10 -10 -5 0 -10 5 -10 10 0 6 5 10 10 10 6 0 10
-4 10 -10z m-190 -26 c0 -8 5 -12 10 -9 6 3 10 1 10 -4 0 -17 -27 -13 -34 5
-9 23 -7 36 4 29 6 -3 10 -13 10 -21z m204 -10 c9 -24 7 -28 -7 -15 -8 6 -17
8 -20 4 -4 -3 -7 -2 -7 4 0 25 25 30 34 7z m-239 -12 c-3 -3 -11 0 -18 7 -9
10 -8 11 6 5 10 -3 15 -9 12 -12z m143 -13 c-3 -8 -7 -3 -11 10 -4 17 -3 21 5
13 5 -5 8 -16 6 -23z m177 12 c-3 -6 -11 -11 -17 -11 -6 0 -6 6 2 15 14 17 26
13 15 -4z m-415 -8 c0 -8 -5 -13 -12 -11 -18 6 -21 25 -3 25 8 0 15 -7 15 -14z
m370 7 c0 -5 -4 -10 -10 -10 -5 0 -10 5 -10 10 0 6 5 10 10 10 6 0 10 -4 10
-10z m80 -4 c0 -2 -15 -15 -34 -30 -32 -24 -35 -24 -33 -7 0 11 4 18 8 16 3
-3 15 2 25 10 18 14 34 19 34 11z m-499 -40 c-14 -36 -22 -33 -9 5 6 16 12 28
14 26 3 -2 0 -16 -5 -31z m379 14 c0 -5 -4 -10 -9 -10 -6 0 -13 5 -16 10 -3 6
1 10 9 10 9 0 16 -4 16 -10z m40 0 c0 -5 -4 -10 -10 -10 -5 0 -10 5 -10 10 0
6 5 10 10 10 6 0 10 -4 10 -10z m-367 -25 c-8 -22 -22 -18 -16 5 3 11 9 17 14
15 4 -3 6 -12 2 -20z m168 2 c-13 -13 -26 -3 -16 12 3 6 11 8 17 5 6 -4 6 -10
-1 -17z m57 -2 c-1 -13 -4 -22 -6 -20 -3 2 -13 0 -23 -6 -15 -7 -19 -6 -19 6
0 8 9 15 20 15 22 0 27 15 8 23 -8 3 -6 6 4 6 13 1 17 -6 16 -24z m38 0 c0
-14 -7 -25 -13 -25 -10 0 -10 6 -1 25 14 31 16 31 14 0z m1674 -77 c29 -50 88
-161 132 -247 45 -86 87 -165 94 -176 16 -22 19 -44 5 -29 -5 5 -51 90 -102
189 -50 99 -109 209 -129 245 -50 87 -62 110 -56 110 3 0 28 -41 56 -92z
m-1791 20 c0 6 7 12 14 12 17 -1 -41 -50 -59 -50 -19 0 -18 -17 4 -30 16 -10
15 -10 -3 -8 -31 5 -31 36 0 48 22 8 26 15 21 34 -3 14 -3 33 1 43 6 14 9 8
14 -22 3 -22 7 -34 8 -27z m191 53 c0 -12 -39 -25 -47 -17 -4 3 1 6 10 6 10 0
17 5 17 10 0 6 5 10 10 10 6 0 10 -4 10 -9z m3 -35 c-15 -13 -30 -22 -33 -19
-6 6 38 43 52 43 5 0 -4 -11 -19 -24z m-299 -18 c4 -17 2 -28 -4 -28 -5 0 -10
14 -10 32 0 36 4 35 14 -4z m32 -26 c-11 -10 -15 4 -8 28 l7 25 3 -23 c2 -13
1 -26 -2 -30z m214 38 c0 -5 -2 -10 -4 -10 -3 0 -8 5 -11 10 -3 6 -1 10 4 10
6 0 11 -4 11 -10z m-75 -17 c11 -15 15 -15 29 -4 20 17 21 5 1 -15 -12 -13
-17 -12 -35 6 -11 11 -20 22 -20 25 0 11 13 4 25 -12z m-205 -9 c0 -8 -4 -12
-10 -9 -5 3 -10 10 -10 16 0 5 5 9 10 9 6 0 10 -7 10 -16z m274 -22 c-78 -62
-95 -74 -101 -69 -3 4 6 11 20 18 17 7 24 17 20 28 -4 14 -3 14 6 1 9 -13 11
-13 11 0 0 16 51 53 60 44 2 -3 -5 -13 -16 -22z m-334 -7 c-24 -8 -46 -12 -49
-10 -2 3 2 7 10 9 8 2 21 7 29 9 8 3 24 5 35 6 11 0 0 -7 -25 -14z m225 -22
c3 -9 0 -21 -6 -27 -9 -8 -10 -6 -6 7 4 11 1 20 -8 23 -8 4 -15 10 -15 15 0
14 28 -1 35 -18z m-299 -20 c-8 -15 -15 -22 -16 -15 0 14 22 53 28 47 2 -2 -3
-16 -12 -32z m334 27 c0 -5 -4 -10 -10 -10 -5 0 -10 5 -10 10 0 6 5 10 10 10
6 0 10 -4 10 -10z m-200 -10 c0 -5 -4 -10 -10 -10 -5 0 -10 5 -10 10 0 6 5 10
10 10 6 0 10 -4 10 -10z m-110 -29 c0 -6 -4 -13 -10 -16 -5 -3 -10 1 -10 9 0
9 5 16 10 16 6 0 10 -4 10 -9z m195 -1 c3 -5 1 -10 -4 -10 -6 0 -11 5 -11 10
0 6 2 10 4 10 3 0 8 -4 11 -10z m45 -15 c9 6 11 4 5 -5 -5 -9 -2 -10 14 -5 27
8 27 -1 0 -15 -17 -9 -23 -8 -35 7 -7 10 -13 23 -14 28 0 6 4 4 9 -4 5 -8 14
-10 21 -6z m-125 -5 c3 -5 2 -10 -4 -10 -5 0 -13 5 -16 10 -3 6 -2 10 4 10 5
0 13 -4 16 -10z m-106 -45 c1 15 41 13 41 -1 0 -13 -37 -13 -57 -1 -7 4 -9 15
-6 25 6 14 8 13 14 -8 4 -14 7 -20 8 -15z m204 17 c16 -17 12 -23 -82 -103
-103 -86 -153 -118 -91 -58 19 19 38 33 42 31 4 -1 5 13 3 33 -4 30 -3 34 9
23 10 -9 11 -15 3 -20 -6 -4 -9 -10 -6 -13 4 -3 17 3 30 14 14 12 18 20 11 21
-15 0 -6 20 9 20 6 0 7 -4 4 -10 -3 -5 -2 -10 4 -10 13 0 25 20 27 44 0 11 7
22 14 24 9 3 9 6 -1 13 -8 5 -9 9 -3 9 6 0 18 -8 27 -18z m-128 -22 c3 -5 1
-10 -4 -10 -6 0 -11 5 -11 10 0 6 2 10 4 10 3 0 8 -4 11 -10z m-99 -57 c-10
-10 -19 5 -10 18 6 11 8 11 12 0 2 -7 1 -15 -2 -18z m-56 3 c0 -3 -4 -8 -10
-11 -5 -3 -10 -1 -10 4 0 6 5 11 10 11 6 0 10 -2 10 -4z m105 -6 c3 -5 1 -10
-4 -10 -6 0 -11 5 -11 10 0 6 2 10 4 10 3 0 8 -4 11 -10z m-128 -62 c-3 -7 -5
-2 -5 12 0 14 2 19 5 13 2 -7 2 -19 0 -25z m50 10 c-3 -8 -6 -5 -6 6 -1 11 2
17 5 13 3 -3 4 -12 1 -19z m83 18 c0 -3 -4 -8 -10 -11 -5 -3 -10 -1 -10 4 0 6
5 11 10 11 6 0 10 -2 10 -4z m5 -26 c-3 -5 -12 -10 -18 -10 -7 0 -6 4 3 10 19
12 23 12 15 0z m-45 -26 c0 -9 -5 -14 -12 -12 -18 6 -21 28 -4 28 9 0 16 -7
16 -16z m-80 -49 c0 -5 -5 -3 -10 5 -5 8 -10 20 -10 25 0 6 5 3 10 -5 5 -8 10
-19 10 -25z m90 11 c0 -3 -4 -8 -10 -11 -5 -3 -10 -1 -10 4 0 6 5 11 10 11 6
0 10 -2 10 -4z m-141 -39 c0 -21 -1 -21 -9 -2 -12 28 -12 37 0 30 6 -3 10 -16
9 -28z m-19 -19 c0 -6 -7 -5 -15 2 -8 7 -15 17 -15 22 0 6 7 5 15 -2 8 -7 15
-17 15 -22z m60 22 c0 -5 -4 -10 -10 -10 -5 0 -10 5 -10 10 0 6 5 10 10 10 6
0 10 -4 10 -10z m2399 -145 c0 -5 -6 -1 -14 9 -8 11 -15 24 -15 30 0 5 7 1 15
-10 8 -10 14 -23 14 -29z m-1532 -257 c6 -10 13 -2558 6 -2558 0 0 -29 66 -63
148 -35 81 -71 165 -81 187 -10 22 -69 155 -132 295 -63 140 -140 311 -172
380 -31 69 -80 177 -107 240 -123 279 -456 1007 -519 1135 -38 77 -69 148 -69
158 0 16 29 17 393 20 215 1 469 3 564 5 129 1 174 -1 180 -10z m1099 5 c142
-4 251 -9 242 -11 -10 -2 -18 -7 -18 -12 0 -5 -12 -22 -26 -37 -14 -15 -53
-58 -86 -95 -33 -38 -64 -68 -69 -68 -13 0 -11 28 3 32 7 3 8 7 2 11 -5 3 -16
2 -23 -2 -10 -7 -11 -13 -2 -30 10 -18 8 -26 -11 -51 -13 -16 -29 -29 -37 -29
-11 -1 -11 2 0 17 8 9 20 21 27 25 25 16 11 26 -40 29 -29 2 -53 8 -53 13 -2
22 -17 55 -26 55 -12 0 -12 -17 1 -25 15 -9 12 -35 -5 -35 -9 0 -12 6 -8 17 5
13 2 15 -11 10 -15 -6 -18 -3 -14 17 3 15 0 27 -8 30 -8 3 -14 10 -14 15 0 7
9 7 26 0 31 -11 47 -2 21 12 -21 12 -23 31 -2 23 8 -4 18 -17 21 -30 3 -13 10
-24 14 -24 5 0 12 -10 16 -22 9 -31 24 -42 58 -46 20 -3 27 0 24 10 -3 7 -16
14 -30 16 -35 4 -67 72 -33 72 8 0 15 5 15 10 0 13 -27 13 -35 0 -5 -8 -11 -7
-21 1 -24 20 -16 27 29 25 34 -1 42 2 41 16 -1 10 4 14 11 11 19 -7 27 -33 10
-33 -20 0 -29 -20 -16 -33 8 -8 11 -8 11 1 0 7 4 12 9 12 6 0 9 -12 8 -27 -2
-22 3 -29 20 -31 17 -3 21 1 17 12 -3 8 -12 12 -20 9 -12 -5 -13 -1 -2 23 7
16 18 39 26 51 12 19 11 22 -8 28 -11 3 -18 11 -15 16 4 5 -36 8 -97 8 -80 -1
-93 -3 -58 -9 25 -4 56 -12 70 -19 23 -10 23 -11 3 -7 -13 2 -26 0 -29 -5 -9
-15 -27 -10 -20 6 4 11 -1 15 -18 15 -18 0 -25 -8 -33 -37 l-10 -38 -2 38 -1
38 -47 -7 c-27 -3 -55 -12 -63 -19 -18 -15 -60 -26 -60 -16 0 4 5 12 12 19 9
9 8 12 -4 12 -25 0 -30 -30 -11 -59 10 -14 16 -29 15 -33 -1 -5 2 -8 8 -8 5 0
10 5 10 11 0 6 6 9 14 6 7 -3 19 0 25 6 8 8 14 8 22 0 9 -9 5 -14 -14 -18 -31
-8 -58 -35 -36 -35 11 0 11 -2 -1 -10 -22 -14 -5 -23 20 -10 12 7 37 12 55 12
l33 0 -2 64 c-1 77 10 85 16 12 5 -63 -5 -88 -35 -89 -17 -1 -18 -2 -4 -6 9
-2 15 -9 12 -14 -4 -5 -2 -9 4 -9 5 0 11 5 13 11 4 12 38 1 38 -12 0 -5 -9 -9
-19 -9 -11 0 -22 -6 -25 -12 -5 -10 -7 -10 -12 0 -11 23 -24 12 -18 -15 4 -19
3 -24 -4 -14 -10 13 -14 10 -26 -23 -5 -14 -3 -17 10 -12 10 4 22 -1 30 -11
12 -16 13 -14 7 15 -5 32 -5 33 21 26 21 -5 25 -3 20 10 -3 9 -1 16 5 16 6 0
11 -7 11 -16 0 -10 6 -14 15 -11 8 4 17 2 20 -3 4 -6 -11 -10 -33 -10 -21 0
-41 -3 -45 -6 -9 -10 4 -34 19 -34 8 0 14 -5 14 -11 0 -6 -6 -9 -14 -6 -8 3
-17 1 -19 -6 -3 -8 -11 -3 -22 11 -13 17 -20 20 -30 12 -16 -14 -25 6 -18 43
6 31 -10 35 -41 12 -19 -15 -19 -16 6 -19 7 0 14 -9 16 -19 3 -15 0 -18 -16
-13 -15 5 -22 2 -25 -11 -4 -13 -5 -12 -6 6 -1 17 -5 21 -17 17 -10 -4 -14 -2
-11 6 2 7 9 12 14 11 5 -1 10 7 10 18 2 23 -3 24 -24 3 -15 -14 -17 -14 -25 0
-5 9 -16 16 -23 16 -18 0 -20 -16 -2 -23 7 -3 5 -6 -5 -6 -10 -1 -18 -8 -18
-16 0 -18 12 -19 28 -3 6 6 15 8 19 4 5 -4 0 -13 -10 -20 -9 -7 -17 -18 -17
-25 0 -23 -17 -10 -38 30 -27 50 -27 52 -2 44 11 -4 20 -2 20 4 0 6 -4 11 -10
11 -5 0 -10 4 -10 10 0 5 7 7 15 4 8 -4 22 -1 29 5 10 8 16 9 21 1 9 -15 25
-12 25 4 0 19 33 26 48 10 17 -19 15 -23 -10 -17 -18 5 -20 3 -12 -7 17 -17
44 -9 62 19 16 23 15 23 -6 17 -29 -10 -55 10 -47 35 4 11 2 19 -4 19 -6 0
-12 -12 -12 -27 -1 -17 -3 -21 -6 -10 -2 9 -8 17 -13 17 -5 0 -7 -7 -3 -16 4
-12 2 -15 -8 -12 -9 3 -13 17 -11 37 2 33 -3 37 -28 21 -10 -6 -11 -10 -2 -10
6 0 12 -9 12 -20 0 -11 -5 -20 -11 -20 -5 0 -8 -4 -5 -9 3 -5 -1 -11 -9 -14
-10 -4 -12 -1 -8 11 4 9 11 20 17 24 6 4 1 8 -11 8 -14 0 -23 -6 -23 -15 0 -9
-9 -15 -24 -15 -19 0 -26 6 -29 28 -3 17 -5 10 -5 -18 0 -65 -1 -70 -11 -70
-5 0 -11 14 -13 30 -3 17 0 30 5 30 5 0 6 14 2 30 -4 19 -3 30 4 30 6 0 11 7
11 15 0 9 -6 12 -15 9 -8 -4 -15 -12 -15 -19 0 -8 -5 -17 -11 -21 -8 -5 -10 1
-7 19 5 26 -21 67 -43 67 -6 0 -8 4 -5 9 4 5 -3 7 -14 4 -26 -7 -25 -19 3 -28
17 -6 19 -8 6 -12 -15 -4 -16 -7 -2 -34 11 -22 18 -28 26 -20 8 8 6 15 -7 24
-16 12 -16 14 -2 26 13 11 16 9 21 -11 3 -12 4 -38 2 -55 -3 -18 0 -33 4 -33
5 0 9 7 9 15 0 8 5 15 10 15 18 0 11 -29 -10 -42 -11 -7 -20 -16 -20 -21 0 -4
5 -5 11 -2 6 4 13 -2 16 -14 3 -12 13 -21 22 -21 14 -1 14 -2 -1 -11 -10 -5
-18 -17 -18 -24 0 -20 -16 -19 -24 0 -3 8 -15 15 -26 15 -11 0 -20 5 -20 10 0
6 7 10 15 10 18 0 19 14 5 41 -7 13 -7 19 0 19 5 0 10 8 10 18 0 14 -2 15 -10
2 -8 -13 -10 -12 -10 3 0 9 -5 17 -11 17 -7 0 -9 -10 -5 -26 5 -19 3 -25 -6
-22 -7 3 -14 14 -16 26 -2 12 -8 22 -13 22 -13 0 -11 -24 4 -39 10 -10 8 -14
-6 -22 -23 -14 -12 -32 12 -19 23 12 35 2 20 -16 -6 -8 -8 -25 -5 -40 6 -21
12 -25 31 -21 17 3 25 0 25 -9 0 -23 -53 -17 -75 9 -11 12 -19 25 -17 30 4 15
-14 6 -26 -13 -10 -16 -9 -27 5 -62 12 -30 13 -43 5 -46 -19 -6 -14 -22 7 -22
14 0 18 5 14 20 -7 25 12 26 26 3 9 -15 10 -14 11 10 0 20 -5 27 -20 27 -11 0
-20 6 -20 14 0 8 -6 16 -12 19 -7 2 -10 7 -6 11 3 4 16 -1 27 -11 12 -9 31
-18 43 -18 14 0 23 -6 23 -15 0 -8 6 -19 13 -23 6 -4 12 -16 11 -25 0 -10 -3
-12 -6 -4 -7 17 -30 15 -37 -4 -9 -24 -7 -54 4 -54 6 0 10 12 10 26 0 21 4 24
20 19 11 -4 20 -2 20 4 0 6 7 11 15 11 14 0 13 -3 -2 -25 -10 -13 -24 -22 -30
-20 -17 6 -16 -10 1 -24 11 -9 15 -9 19 1 4 10 9 8 20 -5 11 -13 22 -16 41
-11 28 7 29 9 16 39 -7 16 -9 16 -9 4 -1 -9 -8 -19 -16 -23 -11 -4 -15 3 -16
27 -1 18 -3 46 -4 62 -4 57 29 74 39 20 4 -19 11 -35 16 -35 14 0 12 24 -2 39
-10 10 -10 15 -1 18 7 2 9 11 6 19 -3 8 0 14 6 14 6 0 11 -7 11 -15 0 -8 3
-14 8 -14 18 3 32 -2 32 -11 0 -5 -6 -10 -13 -10 -7 0 -13 -9 -14 -20 -1 -11
2 -18 8 -15 5 4 10 -6 10 -22 2 -23 2 -24 6 -5 5 23 22 31 24 10 0 -10 2 -10
6 0 3 7 -3 20 -13 27 -18 14 -18 14 4 15 12 0 23 -4 23 -10 1 -5 2 -19 3 -29
1 -24 16 -40 16 -18 0 10 5 14 15 11 8 -4 15 -1 15 5 0 6 -7 11 -15 11 -8 0
-15 5 -15 10 0 6 7 10 15 10 8 0 15 5 15 11 0 6 -9 9 -20 6 -22 -6 -27 17 -9
43 9 12 10 11 6 -8 -3 -12 -1 -19 4 -16 16 9 37 -15 32 -36 -6 -23 -4 -24 31
-10 21 8 26 7 26 -6 0 -9 -9 -18 -19 -21 -12 -3 -17 -11 -14 -19 7 -20 23 -17
24 4 0 15 1 15 8 -2 6 -15 10 -16 16 -7 4 8 2 16 -5 21 -14 9 4 24 30 25 9 0
15 10 15 25 0 24 11 39 27 40 4 0 6 -6 4 -12 -1 -7 -1 -10 1 -5 3 4 11 7 18 7
17 0 14 32 -4 46 -11 9 -9 12 14 18 16 4 32 3 38 -3 14 -14 47 -14 47 -1 0 6
7 10 16 10 11 0 6 -11 -19 -37 -18 -21 -56 -63 -83 -93 -109 -121 -114 -126
-123 -111 -5 7 -14 10 -20 7 -6 -4 -11 -2 -11 4 0 7 -6 10 -12 7 -7 -2 -22 0
-33 6 -18 9 -19 9 -6 -6 12 -15 10 -17 -18 -17 -21 0 -31 5 -31 15 0 9 6 12
15 9 8 -4 15 -1 15 5 0 6 -6 11 -14 11 -9 0 -12 7 -9 21 5 19 4 20 -14 8 -18
-10 -19 -17 -11 -52 6 -26 5 -44 -2 -51 -7 -7 -10 3 -10 32 0 23 -5 42 -10 42
-6 0 -10 6 -9 13 4 29 -2 47 -15 47 -11 0 -13 -7 -6 -30 5 -16 6 -30 3 -30 -3
0 2 -9 11 -19 13 -15 14 -20 4 -24 -11 -4 -10 -7 1 -15 11 -8 9 -11 -8 -17
-11 -3 -21 -10 -21 -15 0 -14 63 0 76 16 16 20 26 17 19 -6 -4 -14 -2 -20 8
-20 20 0 28 25 14 39 -8 8 -7 11 6 11 24 0 22 -42 -3 -58 -19 -12 -28 -43 -12
-42 7 1 56 61 73 90 6 10 11 12 19 4 7 -7 -24 -48 -102 -135 -61 -68 -117
-126 -122 -128 -6 -2 -3 5 7 16 23 26 22 36 -3 21 -13 -8 -19 -20 -16 -32 3
-13 -10 -36 -41 -70 -25 -28 -50 -50 -54 -49 -5 2 -9 -2 -9 -7 0 -6 -20 -32
-45 -57 -34 -36 -46 -43 -50 -31 -8 20 -55 21 -55 1 0 -8 -4 -12 -9 -8 -9 5
-37 -33 -29 -40 2 -2 15 -6 29 -10 23 -6 27 -3 33 19 6 24 26 37 26 17 0 -17
-134 -156 -147 -153 -8 2 -13 -1 -12 -5 3 -18 -1 -33 -10 -33 -5 0 -8 11 -8
24 0 24 20 41 37 31 5 -3 11 -1 15 5 3 5 1 10 -4 10 -6 0 -11 8 -11 17 0 15
-2 14 -14 -3 -8 -10 -18 -16 -22 -11 -4 4 -3 7 2 7 5 0 9 19 8 43 -1 23 1 30
3 15 5 -34 16 -36 31 -5 11 20 12 20 7 -8 -3 -16 0 -37 5 -45 8 -11 9 -9 4 12
-4 19 -1 29 12 36 16 9 16 11 -3 31 -17 19 -21 36 -14 74 0 4 5 7 10 7 5 0 7
-8 4 -19 -3 -10 0 -22 6 -25 7 -5 11 2 11 16 0 32 -15 52 -30 43 -9 -5 -11 -4
-6 3 11 17 54 15 64 -4 11 -21 77 -16 77 6 0 8 4 21 9 28 10 17 -22 42 -43 34
-9 -3 -12 -1 -7 6 9 15 36 16 36 2 0 -5 7 -10 15 -10 19 0 20 19 0 26 -12 5
-12 9 1 32 15 25 15 25 0 8 -14 -18 -21 -15 -17 7 0 4 -4 7 -9 7 -6 0 -10 -7
-10 -15 0 -8 -5 -15 -11 -15 -6 0 -8 7 -5 16 3 8 2 12 -4 9 -6 -3 -10 -1 -10
4 0 6 9 11 20 11 11 0 20 6 20 14 0 15 24 28 34 19 3 -3 -2 -12 -12 -20 -15
-13 -14 -14 17 -10 29 3 34 0 43 -25 5 -15 14 -28 18 -28 5 0 11 -8 13 -17 4
-14 5 -13 6 4 1 16 5 21 17 16 14 -5 15 -3 6 14 -7 13 -7 24 -1 34 8 11 12 11
16 2 10 -26 33 -14 33 17 0 17 -5 30 -11 30 -6 0 -8 -9 -4 -21 5 -15 4 -19 -4
-15 -6 4 -11 14 -11 22 0 26 -18 14 -25 -16 -4 -18 -11 -27 -17 -24 -6 4 -8 3
-5 -2 3 -6 2 -16 -4 -24 -7 -12 -9 -12 -9 3 0 28 -33 78 -47 73 -8 -4 -13 3
-13 19 0 14 5 25 11 25 6 0 9 -7 5 -15 -4 -10 1 -15 14 -15 11 0 20 -4 20 -8
0 -5 7 -17 16 -28 12 -15 15 -16 10 -2 -8 26 20 41 79 41 30 0 55 4 55 8 0 3
10 10 23 14 l22 8 -24 4 c-13 3 -27 0 -30 -5 -9 -15 -78 -26 -85 -13 -9 14
-36 2 -36 -16 0 -8 -5 -11 -11 -7 -6 3 -9 15 -6 25 4 15 0 19 -18 19 -13 0
-27 5 -30 10 -4 6 7 10 25 10 18 0 29 4 25 10 -3 6 1 10 10 10 10 0 14 -7 12
-22 -2 -13 -2 -17 0 -10 3 8 11 11 19 8 16 -6 19 10 4 19 -6 4 -2 18 11 36 17
24 24 27 35 18 19 -15 17 1 -2 26 -15 20 -16 20 -40 -10 -13 -16 -24 -36 -24
-42 0 -7 -5 -13 -10 -13 -6 0 -4 15 5 36 8 20 15 37 15 38 0 0 -10 2 -23 2
-18 1 -22 -4 -23 -32 -2 -50 -11 -66 -36 -62 -17 2 -26 -4 -35 -22 -8 -19 -12
-21 -12 -7 -1 9 4 26 11 36 9 15 8 26 -4 52 -15 31 -15 34 5 61 12 16 23 25
25 19 2 -5 9 -8 16 -5 8 3 16 -2 20 -12 5 -14 10 -13 32 11 14 15 28 24 32 20
4 -4 1 -10 -5 -12 -7 -3 -13 -9 -13 -14 0 -6 5 -7 10 -4 6 3 10 -1 10 -9 0 -9
4 -16 9 -16 5 0 8 16 8 36 -1 37 -10 40 -61 19 -15 -7 -17 -5 -11 13 8 26 -3
29 -21 5 -12 -16 -13 -15 -8 12 2 17 7 36 9 43 3 8 -13 0 -34 -17 -21 -17 -44
-31 -50 -31 -15 0 -14 -47 1 -52 8 -3 8 -9 0 -24 -6 -10 -12 -14 -12 -8 0 17
-30 26 -30 10 0 -7 11 -19 25 -26 28 -15 33 -30 10 -30 -8 0 -15 -5 -15 -10 0
-7 -6 -7 -18 -1 -11 6 -24 6 -33 0 -11 -7 -11 -9 4 -9 9 0 17 -5 17 -11 0 -6
-7 -8 -16 -5 -9 4 -22 2 -28 -3 -8 -6 -11 -2 -11 16 0 19 6 26 28 30 28 6 35
26 17 53 -8 12 -10 11 -10 -7 0 -13 -4 -23 -10 -23 -5 0 -10 6 -10 13 0 8 -12
11 -37 9 l-38 -3 -3 100 c-3 102 1 120 18 79 8 -21 9 -20 9 9 1 17 -3 33 -8
35 -4 2 -12 13 -15 26 -5 16 -3 22 7 22 9 0 20 -18 28 -45 10 -35 15 -41 21
-28 6 16 7 16 7 -2 1 -12 4 -16 9 -9 12 18 52 24 52 8 0 -8 -6 -11 -16 -7 -11
4 -15 1 -13 -13 2 -10 0 -20 -5 -21 -12 -2 -26 -25 -26 -43 0 -13 1 -13 10 0
5 8 10 10 10 4 0 -6 -6 -17 -13 -23 -18 -14 -44 6 -50 39 -3 16 -5 9 -6 -17
-1 -43 3 -47 47 -46 6 1 12 -5 12 -13 0 -8 -10 -14 -25 -14 -15 0 -25 -6 -25
-14 0 -11 7 -12 27 -7 21 5 29 17 40 55 8 26 16 46 18 44 3 -2 9 -22 14 -44 7
-32 9 -34 10 -11 1 20 6 27 21 27 22 0 27 16 8 23 -7 2 -1 2 13 0 18 -3 29 1
32 12 5 12 1 14 -17 9 -13 -3 -27 -1 -30 5 -4 6 -3 11 2 11 14 0 23 30 17 51
-9 26 -25 24 -26 -3 l-2 -23 -4 23 c-3 17 -11 22 -34 22 -18 0 -28 4 -24 10 4
6 14 9 23 8 12 -2 16 3 15 20 -2 13 1 21 7 17 6 -3 10 -2 10 4 0 5 -5 13 -10
16 -6 4 -8 11 -5 16 7 11 26 12 24 2 -4 -22 2 -43 12 -43 7 0 9 9 6 22 -4 13
0 26 9 33 20 14 8 64 -18 74 -18 6 -18 7 3 29 23 25 40 22 19 -3 -7 -9 -10
-19 -6 -22 9 -9 26 17 26 40 0 11 -9 21 -20 24 -19 5 -19 6 -4 18 26 18 54 7
54 -21 0 -13 5 -24 11 -24 18 0 1 53 -23 71 -23 18 -18 23 30 34 42 9 32 20
-14 16 -19 -1 -34 2 -34 8 0 6 -5 11 -11 11 -6 0 -8 -10 -5 -22 3 -13 3 -17 0
-10 -9 20 -34 14 -34 -9 0 -16 4 -19 20 -14 11 4 20 2 20 -4 0 -6 -6 -11 -14
-11 -8 0 -22 -8 -31 -17 -16 -16 -16 -17 1 -30 14 -10 15 -16 6 -25 -9 -9 -12
-8 -13 8 0 10 -3 13 -6 7 -2 -7 -17 -13 -31 -13 -35 0 -60 -15 -39 -23 7 -3
20 -1 28 4 18 11 32 11 25 0 -4 -5 -3 -11 2 -13 15 -6 52 -61 46 -69 -3 -5
-10 -7 -15 -3 -5 3 -17 0 -26 -8 -15 -11 -16 -11 -10 5 5 12 1 17 -13 17 -11
0 -20 5 -20 11 0 6 7 9 15 5 9 -3 15 0 15 9 0 18 -5 18 -32 4 -18 -10 -20 -9
-15 5 4 9 2 16 -3 16 -19 0 -10 -26 20 -58 36 -40 40 -79 8 -91 -31 -12 -64 5
-48 24 7 8 8 20 4 26 -4 8 -3 9 4 5 8 -5 12 1 12 15 0 21 -1 21 -25 -5 -21
-23 -28 -26 -40 -16 -13 11 -15 -13 -15 -189 0 -172 2 -201 15 -201 17 0 21
45 5 55 -5 3 -10 10 -10 16 0 12 57 12 65 -1 3 -6 -4 -10 -16 -10 -19 0 -21
-4 -14 -32 12 -59 12 -63 1 -70 -19 -13 -28 -9 -21 12 5 14 2 20 -9 20 -23 0
-21 -50 2 -51 16 -1 16 -2 0 -6 -17 -4 -18 -25 -18 -265 1 -143 -2 -263 -5
-266 -3 -3 -5 285 -5 640 0 354 3 648 7 651 8 9 580 9 909 0z m-2433 -27 c12
-13 55 -100 96 -192 41 -93 100 -225 131 -294 32 -69 68 -147 80 -175 58 -129
178 -390 222 -485 81 -171 199 -431 298 -655 51 -115 115 -259 142 -320 145
-321 169 -377 166 -386 -2 -5 -26 16 -53 48 -27 32 -135 155 -240 273 -515
581 -996 1126 -1249 1414 -72 82 -185 211 -251 285 -66 75 -165 188 -220 251
-54 63 -106 122 -116 130 -24 21 -89 110 -89 121 0 5 213 9 530 9 l531 0 22
-24z m3965 18 c-4 -3 -237 -5 -520 -4 -450 0 -516 -1 -535 -15 -22 -15 -63
-95 -63 -121 0 -13 -19 -53 -30 -64 -3 -3 -16 -27 -29 -55 -13 -27 -29 -61
-36 -75 -7 -14 -14 -28 -14 -32 -1 -4 -13 -31 -26 -60 -25 -54 -35 -99 -15
-68 6 10 10 11 10 3 0 -7 7 -13 15 -13 8 0 15 -4 15 -8 0 -5 -7 -9 -15 -9 -8
0 -15 4 -15 8 0 4 -8 6 -17 4 -10 -2 -22 -4 -28 -4 -5 -1 -3 -6 5 -11 9 -6 11
-10 3 -10 -7 0 -19 -12 -27 -27 -36 -66 -11 -3 43 109 32 68 89 191 126 273
36 83 76 158 87 168 19 16 60 17 546 17 289 0 523 -3 520 -6z m-1533 -24 c7
-12 -2 -12 -30 0 -19 8 -19 9 2 9 12 1 25 -3 28 -9z m508 -8 c-10 -11 -22 -17
-26 -14 -5 2 0 10 10 18 26 20 36 17 16 -4z m107 8 c0 -5 -2 -10 -4 -10 -3 0
-8 5 -11 10 -3 6 -1 10 4 10 6 0 11 -4 11 -10z m40 -10 c-8 -5 -17 -7 -19 -4
-3 3 1 9 9 14 8 5 17 7 19 4 3 -3 -1 -9 -9 -14z m113 13 c-7 -2 -19 -2 -25 0
-7 3 -2 5 12 5 14 0 19 -2 13 -5z m64 1 c-3 -3 -12 -4 -19 -1 -8 3 -5 6 6 6
11 1 17 -2 13 -5z m228 -4 c-3 -5 -13 -10 -21 -10 -8 0 -14 5 -14 10 0 6 9 10
21 10 11 0 17 -4 14 -10z m75 0 c0 -13 -11 -13 -30 0 -12 8 -11 10 8 10 12 0
22 -4 22 -10z m100 -5 c0 -8 -8 -15 -17 -14 -13 0 -14 2 -4 6 11 5 11 7 0 14
-11 7 -10 9 4 9 9 0 17 -7 17 -15z m105 5 c4 -6 -7 -10 -27 -9 -31 1 -32 1 -8
9 14 4 26 8 27 9 1 1 5 -3 8 -9z m116 -15 c5 3 6 -2 3 -12 -3 -11 5 -6 20 12
14 17 26 24 26 17 0 -7 -42 -59 -92 -115 -51 -56 -127 -141 -168 -187 -41 -47
-79 -90 -85 -96 -5 -6 -34 -39 -64 -73 -55 -61 -76 -76 -64 -43 5 14 4 15 -8
6 -20 -15 -59 -24 -59 -13 0 5 11 9 24 9 14 0 28 5 31 10 4 6 11 8 16 4 19
-12 59 37 55 67 -2 16 0 26 4 24 15 -9 32 24 24 47 -6 20 -5 21 9 9 13 -10 14
-18 6 -33 -6 -11 -7 -23 -3 -26 4 -4 9 -1 11 6 3 7 11 19 19 26 17 17 19 30 2
20 -7 -4 -8 -3 -4 5 4 6 11 9 16 6 14 -9 70 58 64 77 -4 13 0 16 14 13 12 -2
25 7 36 26 9 16 21 29 27 29 5 0 9 7 9 17 0 14 -2 14 -21 -3 -22 -19 -22 -19
-10 4 7 14 20 22 31 20 28 -5 66 43 65 82 0 20 -6 35 -14 38 -10 3 -12 0 -8
-11 3 -9 2 -19 -4 -23 -7 -4 -6 -10 1 -19 9 -10 7 -18 -8 -33 -11 -11 -23 -18
-26 -14 -11 11 -6 22 10 22 10 0 14 6 11 15 -3 8 0 33 7 57 10 33 15 39 21 26
9 -23 40 -24 31 -2 -3 8 -2 12 4 9 6 -3 13 2 17 12 7 17 8 17 11 0 2 -9 8 -15
13 -12z m-594 -17 c-3 -7 -5 -2 -5 12 0 14 2 19 5 13 2 -7 2 -19 0 -25z m-994
7 c-3 -9 -8 -14 -10 -11 -3 3 -2 9 2 15 9 16 15 13 8 -4z m157 -1 c0 -8 -5
-12 -10 -9 -6 4 -8 11 -5 16 9 14 15 11 15 -7z m678 -9 c-3 -3 -9 2 -12 12 -6
14 -5 15 5 6 7 -7 10 -15 7 -18z m412 15 c0 -5 -7 -10 -15 -10 -8 0 -15 5 -15
10 0 6 7 10 15 10 8 0 15 -4 15 -10z m-493 -32 c-3 -7 -5 -2 -5 12 0 14 2 19
5 13 2 -7 2 -19 0 -25z m403 16 c0 -8 -5 -12 -10 -9 -6 4 -8 11 -5 16 9 14 15
11 15 -7z m-1280 0 c0 -3 -9 -17 -20 -31 -21 -27 -27 -15 -10 18 10 18 30 27
30 13z m33 -14 c-3 -11 -8 -20 -12 -20 -4 0 -7 9 -8 20 -1 11 4 20 12 20 8 0
11 -7 8 -20z m1004 -6 c-3 -3 -12 -4 -19 -1 -8 3 -5 6 6 6 11 1 17 -2 13 -5z
m-1087 -14 c0 -5 -7 -10 -15 -10 -8 0 -15 5 -15 10 0 6 7 10 15 10 8 0 15 -4
15 -10z m1190 1 c0 -6 -4 -13 -10 -16 -5 -3 -10 1 -10 9 0 9 5 16 10 16 6 0
10 -4 10 -9z m400 -6 c0 -9 -9 -15 -22 -15 -21 0 -21 0 -2 15 24 18 24 18 24
0z m-828 -7 c-18 -18 -15 -28 11 -38 l22 -9 -22 0 c-13 -1 -23 5 -23 12 0 8
-4 7 -10 -3 -13 -19 -13 -8 0 24 5 14 15 26 22 26 9 0 9 -3 0 -12z m156 -14
c0 -14 -3 -22 -7 -17 -3 6 -13 13 -21 16 -12 4 -11 6 3 6 9 1 17 6 17 11 0 6
2 10 4 10 2 0 4 -12 4 -26z m222 16 c0 -5 -4 -10 -10 -10 -5 0 -10 5 -10 10 0
6 5 10 10 10 6 0 10 -4 10 -10z m210 0 c0 -5 -4 -10 -10 -10 -5 0 -10 5 -10
10 0 6 5 10 10 10 6 0 10 -4 10 -10z m-553 -22 c-3 -8 -6 -5 -6 6 -1 11 2 17
5 13 3 -3 4 -12 1 -19z m243 12 c0 -5 -4 -10 -10 -10 -5 0 -10 5 -10 10 0 6 5
10 10 10 6 0 10 -4 10 -10z m364 -5 c3 -8 1 -15 -4 -15 -6 0 -10 7 -10 15 0 8
2 15 4 15 2 0 6 -7 10 -15z m-1310 -3 c2 -4 2 -13 -2 -19 -9 -14 -72 -27 -72
-15 0 5 14 12 31 16 17 3 28 10 24 16 -3 5 -2 10 4 10 5 0 12 -4 15 -8z m1006
4 c0 -3 -4 -8 -10 -11 -5 -3 -10 -1 -10 4 0 6 5 11 10 11 6 0 10 -2 10 -4z
m-199 -54 c-11 -4 -51 28 -51 41 0 4 14 -3 31 -15 16 -12 26 -24 20 -26z m42
7 c-8 -31 -20 -22 -15 12 3 19 7 26 12 19 4 -7 5 -21 3 -31z m628 3 c-6 -2
-11 -13 -12 -25 0 -12 -3 -16 -6 -9 -3 7 1 27 8 45 11 26 14 28 17 12 3 -10
-1 -21 -7 -23z m-51 18 c0 -5 -4 -10 -10 -10 -5 0 -10 5 -10 10 0 6 5 10 10
10 6 0 10 -4 10 -10z m-685 -21 c4 -11 4 -23 1 -26 -3 -4 -6 1 -6 11 0 9 -4
14 -10 11 -5 -3 -10 1 -10 9 0 23 18 20 25 -5z m179 6 c3 -8 1 -15 -4 -15 -6
0 -10 7 -10 15 0 8 2 15 4 15 2 0 6 -7 10 -15z m379 8 c-7 -2 -21 -2 -30 0
-10 3 -4 5 12 5 17 0 24 -2 18 -5z m87 -3 c0 -5 -5 -10 -11 -10 -5 0 -7 5 -4
10 3 6 8 10 11 10 2 0 4 -4 4 -10z m-40 -10 c0 -5 -4 -10 -10 -10 -5 0 -10 5
-10 10 0 6 5 10 10 10 6 0 10 -4 10 -10z m-682 -25 c-3 -3 -9 2 -12 12 -6 14
-5 15 5 6 7 -7 10 -15 7 -18z m202 0 c0 -8 -7 -15 -15 -15 -13 0 -14 3 -3 15
16 18 18 18 18 0z m363 -5 c3 -12 0 -20 -8 -20 -8 0 -11 8 -8 20 3 11 7 20 8
20 1 0 5 -9 8 -20z m67 10 c0 -5 -2 -10 -4 -10 -3 0 -8 5 -11 10 -3 6 -1 10 4
10 6 0 11 -4 11 -10z m130 0 c0 -5 -5 -10 -11 -10 -5 0 -7 5 -4 10 3 6 8 10
11 10 2 0 4 -4 4 -10z m62 -12 c-7 -7 -12 -8 -12 -2 0 14 12 26 19 19 2 -3 -1
-11 -7 -17z m-105 -8 c3 -10 2 -11 -4 -4 -4 6 -15 14 -23 17 -11 5 -9 6 4 4
11 -1 21 -9 23 -17z m-410 4 c-3 -3 -12 -4 -19 -1 -8 3 -5 6 6 6 11 1 17 -2
13 -5z m-77 -14 c0 -5 -5 -10 -11 -10 -5 0 -7 5 -4 10 3 6 8 10 11 10 2 0 4
-4 4 -10z m190 0 c0 -5 -4 -10 -10 -10 -5 0 -10 5 -10 10 0 6 5 10 10 10 6 0
10 -4 10 -10z m-337 -20 c-3 -12 -8 -19 -11 -16 -5 6 5 36 12 36 2 0 2 -9 -1
-20z m272 -48 c-5 -20 -8 -23 -16 -11 -5 7 -8 21 -8 29 0 10 3 8 9 -5 7 -16 9
-12 11 20 1 26 3 32 6 16 3 -12 2 -35 -2 -49z m142 46 c-3 -8 -6 -5 -6 6 -1
11 2 17 5 13 3 -3 4 -12 1 -19z m-1417 4 c0 -13 -12 -22 -22 -16 -10 6 -1 24
13 24 5 0 9 -4 9 -8z m452 -6 c-12 -6 -20 -15 -17 -18 3 -3 -6 -9 -20 -12 -14
-4 -23 -11 -20 -16 10 -15 -11 -12 -24 4 -14 17 2 31 24 22 8 -3 17 -1 20 4 4
6 -13 10 -39 10 -25 0 -46 4 -46 8 0 5 33 9 73 10 63 1 69 -1 49 -12z m798 -1
c0 -2 -6 -5 -13 -8 -8 -3 -14 1 -14 8 0 7 6 11 14 8 7 -3 13 -6 13 -8z m57
-17 c-3 -7 -5 -2 -5 12 0 14 2 19 5 13 2 -7 2 -19 0 -25z m320 10 c-3 -8 -6
-5 -6 6 -1 11 2 17 5 13 3 -3 4 -12 1 -19z m78 -7 c-3 -6 -11 -11 -17 -11 -6
0 -6 6 2 15 14 17 26 13 15 -4z m-506 -10 c12 -11 18 -21 14 -24 -11 -6 -44 7
-46 18 -1 6 -6 9 -10 7 -5 -1 -6 2 -2 8 9 15 19 13 44 -9z m259 -22 c-7 -5
-14 -4 -16 1 -2 6 -10 10 -18 10 -9 0 -13 4 -9 10 3 6 15 5 31 -2 18 -8 21
-14 12 -19z m225 -10 c11 -8 1 -29 -13 -29 -5 0 -7 7 -4 15 5 11 -1 15 -22 16
-23 1 -24 3 -7 6 15 3 20 9 17 21 -4 12 -2 11 7 -3 7 -11 17 -23 22 -26z
m-1703 21 c0 -5 -7 -10 -16 -10 -8 0 -12 5 -9 10 3 6 10 10 16 10 5 0 9 -4 9
-10z m1010 -10 c0 -5 -5 -10 -11 -10 -5 0 -7 5 -4 10 3 6 8 10 11 10 2 0 4 -4
4 -10z m510 0 c0 -5 -5 -10 -11 -10 -5 0 -7 5 -4 10 3 6 8 10 11 10 2 0 4 -4
4 -10z m-1518 -42 c-15 -15 -26 -4 -18 18 5 13 9 15 18 6 9 -9 9 -15 0 -24z
m852 16 c3 -8 2 -12 -4 -9 -6 3 -10 1 -10 -6 0 -7 -2 -10 -5 -7 -5 5 4 38 10
38 2 0 6 -7 9 -16z m206 6 c0 -5 -2 -10 -4 -10 -3 0 -8 5 -11 10 -3 6 -1 10 4
10 6 0 11 -4 11 -10z m145 0 c3 -5 1 -10 -4 -10 -6 0 -11 5 -11 10 0 6 2 10 4
10 3 0 8 -4 11 -10z m328 -10 c-3 -11 -9 -17 -15 -14 -5 3 -4 12 3 20 16 19
18 18 12 -6z m-1563 -5 c0 -9 -7 -18 -15 -21 -8 -4 -15 -12 -15 -20 0 -8 -5
-14 -11 -14 -6 0 -9 3 -7 8 24 48 32 62 40 62 4 0 8 -7 8 -15z m1170 11 c0 -3
-4 -8 -10 -11 -5 -3 -10 -1 -10 4 0 6 5 11 10 11 6 0 10 -2 10 -4z m533 -16
c3 -11 1 -20 -4 -20 -5 0 -9 9 -9 20 0 11 2 20 4 20 2 0 6 -9 9 -20z m-1567
-16 c-3 -9 -6 -20 -6 -25 0 -5 -4 -9 -9 -9 -4 0 -6 11 -3 25 2 14 9 25 14 25
6 0 7 -7 4 -16z m1089 6 c3 -5 1 -10 -4 -10 -6 0 -11 5 -11 10 0 6 2 10 4 10
3 0 8 -4 11 -10z m75 -16 c0 -8 -4 -12 -10 -9 -5 3 -10 13 -10 21 0 8 5 12 10
9 6 -3 10 -13 10 -21z m215 16 c-3 -5 -10 -10 -16 -10 -5 0 -9 5 -9 10 0 6 7
10 16 10 8 0 12 -4 9 -10z m-1222 -33 c-5 -8 -8 -7 -11 1 -2 7 -8 12 -14 12
-6 0 -5 -6 2 -15 25 -31 -8 -24 -69 13 -2 1 -2 5 1 8 4 3 15 1 26 -5 15 -8 23
-7 32 4 10 12 16 12 26 4 8 -6 11 -16 7 -22z m647 23 c0 -5 -4 -10 -10 -10 -5
0 -10 5 -10 10 0 6 5 10 10 10 6 0 10 -4 10 -10z m85 -8 c-3 -3 -11 0 -18 7
-9 10 -8 11 6 5 10 -3 15 -9 12 -12z m140 8 c3 -5 1 -10 -4 -10 -6 0 -11 5
-11 10 0 6 2 10 4 10 3 0 8 -4 11 -10z m235 6 c0 -3 -4 -8 -10 -11 -5 -3 -10
-1 -10 4 0 6 5 11 10 11 6 0 10 -2 10 -4z m215 -25 c-6 -5 -25 10 -25 20 0 5
6 4 14 -3 8 -7 12 -15 11 -17z m-135 -16 c0 -5 -5 -3 -10 5 -5 8 -10 20 -10
25 0 6 5 3 10 -5 5 -8 10 -19 10 -25z m-273 19 c-3 -3 -12 -4 -19 -1 -8 3 -5
6 6 6 11 1 17 -2 13 -5z m365 -16 c-7 -7 -12 -8 -12 -2 0 6 3 14 7 17 3 4 9 5
12 2 2 -3 -1 -11 -7 -17z m-1605 -34 c-3 -3 -13 1 -22 9 -8 9 -15 21 -15 29 0
7 9 4 22 -9 12 -13 19 -25 15 -29z m1178 28 c-3 -3 -11 0 -18 7 -9 10 -8 11 6
5 10 -3 15 -9 12 -12z m-835 -7 c0 -8 -4 -15 -10 -15 -5 0 -10 7 -10 15 0 8 5
15 10 15 6 0 10 -7 10 -15z m-70 -5 c0 -5 -5 -10 -11 -10 -5 0 -7 5 -4 10 3 6
8 10 11 10 2 0 4 -4 4 -10z m650 0 c0 -5 -10 -10 -22 -9 -22 0 -22 1 -3 9 11
5 21 9 23 9 1 1 2 -3 2 -9z m100 0 c0 -5 -4 -10 -10 -10 -5 0 -10 5 -10 10 0
6 5 10 10 10 6 0 10 -4 10 -10z m188 -31 c-24 -16 -29 -9 -11 18 15 23 18 24
21 9 2 -10 -2 -22 -10 -27z m74 11 c3 -16 1 -30 -4 -30 -4 0 -8 14 -8 30 0 17
2 30 4 30 2 0 6 -13 8 -30z m38 26 c0 -3 -4 -8 -10 -11 -5 -3 -10 -1 -10 4 0
6 5 11 10 11 6 0 10 -2 10 -4z m325 -6 c3 -5 1 -10 -4 -10 -6 0 -11 5 -11 10
0 6 2 10 4 10 3 0 8 -4 11 -10z m-671 -16 c8 -21 8 -24 -4 -24 -5 0 -10 7 -10
15 0 9 -6 12 -17 9 -15 -5 -16 -4 -3 5 20 15 27 14 34 -5z m363 -6 c-3 -8 -6
-5 -6 6 -1 11 2 17 5 13 3 -3 4 -12 1 -19z m173 -3 c-7 -8 -17 -15 -23 -15 -6
0 -2 7 9 15 25 19 30 19 14 0z m60 -5 c0 -5 -4 -10 -10 -10 -5 0 -10 5 -10 10
0 6 5 10 10 10 6 0 10 -4 10 -10z m-545 -18 c-3 -3 -11 0 -18 7 -9 10 -8 11 6
5 10 -3 15 -9 12 -12z m395 -2 c0 -5 -2 -10 -4 -10 -3 0 -8 5 -11 10 -3 6 -1
10 4 10 6 0 11 -4 11 -10z m-460 -10 c0 -5 -4 -10 -10 -10 -5 0 -10 5 -10 10
0 6 5 10 10 10 6 0 10 -4 10 -10z m112 -12 c-7 -7 -12 -8 -12 -2 0 6 3 14 7
17 3 4 9 5 12 2 2 -3 -1 -11 -7 -17z m481 0 c-18 -20 -26 -19 -18 4 3 8 12 15
20 15 13 0 12 -4 -2 -19z m-293 -8 c0 -5 -2 -10 -4 -10 -3 0 -8 5 -11 10 -3 6
-1 10 4 10 6 0 11 -4 11 -10z m130 0 c-20 -13 -33 -13 -25 0 3 6 14 10 23 10
15 0 15 -2 2 -10z m195 0 c-3 -5 -11 -10 -16 -10 -6 0 -7 5 -4 10 3 6 11 10
16 10 6 0 7 -4 4 -10z m35 1 c0 -13 -29 -35 -37 -27 -3 3 -1 6 5 6 7 0 12 7
12 15 0 8 5 15 10 15 6 0 10 -4 10 -9z m-715 -19 c-3 -3 -11 0 -18 7 -9 10 -8
11 6 5 10 -3 15 -9 12 -12z m135 8 c0 -5 -4 -10 -10 -10 -5 0 -10 5 -10 10 0
6 5 10 10 10 6 0 10 -4 10 -10z m95 -10 c3 -5 2 -10 -4 -10 -5 0 -13 5 -16 10
-3 6 -2 10 4 10 5 0 13 -4 16 -10z m-45 -16 c0 -2 -7 -4 -15 -4 -8 0 -15 4
-15 10 0 5 7 7 15 4 8 -4 15 -8 15 -10z m-205 -4 c3 -5 1 -10 -4 -10 -6 0 -11
5 -11 10 0 6 2 10 4 10 3 0 8 -4 11 -10z m305 5 c0 -2 -10 -9 -22 -15 -22 -11
-22 -10 -4 4 21 17 26 19 26 11z m-240 -15 c0 -5 -2 -10 -4 -10 -3 0 -8 5 -11
10 -3 6 -1 10 4 10 6 0 11 -4 11 -10z m37 -22 c-3 -8 -6 -5 -6 6 -1 11 2 17 5
13 3 -3 4 -12 1 -19z m278 12 c3 -5 2 -10 -4 -10 -5 0 -13 5 -16 10 -3 6 -2
10 4 10 5 0 13 -4 16 -10z m-1025 -10 c0 -5 -4 -10 -10 -10 -5 0 -10 5 -10 10
0 6 5 10 10 10 6 0 10 -4 10 -10z m604 -11 c-3 -6 0 -15 7 -20 11 -7 11 -9 -2
-9 -9 0 -19 9 -22 20 -3 13 0 20 10 20 8 0 11 -5 7 -11z m576 -9 c-16 -11 -40
-13 -40 -5 0 8 44 24 50 18 2 -2 -2 -8 -10 -13z m-515 0 c-3 -5 -11 -10 -16
-10 -6 0 -7 5 -4 10 3 6 11 10 16 10 6 0 7 -4 4 -10z m611 -21 c-49 -33 -61
-34 -50 -5 5 14 9 15 15 4 6 -9 11 -10 17 -2 8 13 43 33 56 34 5 0 -12 -14
-38 -31z m-446 11 c0 -5 -2 -10 -4 -10 -3 0 -8 5 -11 10 -3 6 -1 10 4 10 6 0
11 -4 11 -10z m140 6 c0 -2 -7 -7 -16 -10 -8 -3 -12 -2 -9 4 6 10 25 14 25 6z
m60 0 c0 -11 -19 -15 -25 -6 -3 5 1 10 9 10 9 0 16 -2 16 -4z m-353 -22 c-3
-3 -12 -4 -19 -1 -8 3 -5 6 6 6 11 1 17 -2 13 -5z m478 -13 c-3 -6 -11 -8 -17
-5 -6 4 -5 9 3 15 16 10 23 4 14 -10z m-664 -19 c-13 -24 -14 -45 -3 -38 5 3
9 -2 9 -10 0 -9 -4 -11 -10 -5 -5 5 -15 7 -23 4 -9 -3 -6 9 9 35 12 22 23 39
25 37 2 -2 -1 -12 -7 -23z m439 18 c0 -5 -4 -10 -10 -10 -5 0 -10 5 -10 10 0
6 5 10 10 10 6 0 10 -4 10 -10z m-188 -28 c-7 -2 -12 -11 -12 -20 0 -12 -3
-13 -12 -4 -9 9 -7 16 7 33 14 14 21 17 24 8 2 -7 -1 -15 -7 -17z m458 13 c0
-15 -60 -59 -68 -50 -8 7 27 35 40 33 7 -2 12 5 12 15 -1 9 2 17 7 17 5 0 9
-7 9 -15z m-560 -5 c0 -5 -5 -10 -11 -10 -5 0 -7 5 -4 10 3 6 8 10 11 10 2 0
4 -4 4 -10z m148 -14 c-12 -7 -25 -11 -28 -9 -8 8 32 33 42 27 6 -4 -1 -12
-14 -18z m52 14 c0 -5 -4 -10 -10 -10 -5 0 -10 5 -10 10 0 6 5 10 10 10 6 0
10 -4 10 -10z m50 -5 c0 -8 -2 -15 -4 -15 -2 0 -6 7 -10 15 -3 8 -1 15 4 15 6
0 10 -7 10 -15z m224 -54 c-7 -7 -12 3 -18 39 l-6 35 14 -35 c7 -19 12 -37 10
-39z m-94 49 c0 -5 -5 -10 -11 -10 -5 0 -7 5 -4 10 3 6 8 10 11 10 2 0 4 -4 4
-10z m-80 -10 c0 -5 -5 -10 -11 -10 -5 0 -7 5 -4 10 3 6 8 10 11 10 2 0 4 -4
4 -10z m-295 -10 c8 -13 -25 -13 -45 0 -12 8 -9 10 12 10 15 0 30 -4 33 -10z
m185 -2 c0 -4 -7 -8 -15 -8 -8 0 -15 4 -15 8 0 5 7 9 15 9 8 0 15 -4 15 -9z
m-1230 -8 c0 -5 -5 -10 -11 -10 -5 0 -15 -14 -21 -31 -7 -22 -13 -27 -19 -18
-4 7 -3 19 3 26 7 9 7 13 -1 13 -6 0 -11 4 -11 9 0 5 9 7 20 4 11 -3 20 0 20
6 0 6 5 11 10 11 6 0 10 -4 10 -10z m1410 0 c0 -5 -2 -10 -4 -10 -3 0 -8 5
-11 10 -3 6 -1 10 4 10 6 0 11 -4 11 -10z m-450 -14 c0 -2 -7 -6 -15 -10 -8
-3 -15 -1 -15 4 0 6 7 10 15 10 8 0 15 -2 15 -4z m410 -11 c0 -8 -4 -15 -10
-15 -5 0 -10 7 -10 15 0 8 5 15 10 15 6 0 10 -7 10 -15z m-511 -40 c0 -5 -4
-3 -10 5 -9 12 -10 11 -6 -8 3 -12 2 -20 -3 -17 -4 2 -21 -26 -38 -63 -17 -37
-38 -78 -46 -92 -7 -14 -22 -42 -32 -63 -11 -21 -23 -41 -28 -44 -5 -4 -7 -2
-4 3 30 55 148 306 149 316 0 14 17 -20 18 -37z m31 1 c0 -12 -5 -7 -19 24
-11 24 -11 24 3 6 9 -11 16 -24 16 -30z m597 19 c-15 -16 -19 -13 -11 9 3 9
10 13 15 10 5 -3 3 -11 -4 -19z m-79 -10 c-3 -3 -9 2 -12 12 -6 14 -5 15 5 6
7 -7 10 -15 7 -18z m-1500 8 c-9 -2 -19 -12 -21 -21 -3 -12 -5 -10 -6 6 -1 17
4 22 22 21 15 -1 17 -3 5 -6z m1132 -3 c0 -5 -5 -10 -11 -10 -5 0 -7 5 -4 10
3 6 8 10 11 10 2 0 4 -4 4 -10z m-1055 -20 c3 -5 1 -10 -4 -10 -6 0 -11 5 -11
10 0 6 2 10 4 10 3 0 8 -4 11 -10z m1095 6 c0 -3 -4 -8 -10 -11 -5 -3 -10 -1
-10 4 0 6 5 11 10 11 6 0 10 -2 10 -4z m19 -40 c-9 -8 -10 -7 -5 7 3 10 7 24
7 30 1 7 3 4 6 -7 3 -10 -1 -23 -8 -30z m-1019 24 c0 -5 -4 -10 -10 -10 -5 0
-10 5 -10 10 0 6 5 10 10 10 6 0 10 -4 10 -10z m930 -9 c0 -4 -6 -8 -14 -8 -8
0 -12 6 -9 14 5 13 23 9 23 -6z m-990 -4 c0 -7 -10 -13 -22 -14 -22 -2 -22 -1
-4 13 24 17 26 17 26 1z m1362 1 c7 7 17 12 23 12 5 0 1 -6 -10 -13 -24 -14
-73 -18 -81 -6 -3 5 2 6 10 3 9 -4 16 -1 16 6 0 10 3 10 15 0 12 -10 19 -10
27 -2z m-1482 -2 c0 -11 -19 -15 -25 -6 -3 5 1 10 9 10 9 0 16 -2 16 -4z m47
-2 c-3 -3 -12 -4 -19 -1 -8 3 -5 6 6 6 11 1 17 -2 13 -5z m-97 -19 c0 -8 -4
-15 -10 -15 -5 0 -10 7 -10 15 0 8 5 15 10 15 6 0 10 -7 10 -15z m1390 5 c0
-5 -2 -10 -4 -10 -3 0 -8 5 -11 10 -3 6 -1 10 4 10 6 0 11 -4 11 -10z m-1273
-22 c-3 -8 -6 -5 -6 6 -1 11 2 17 5 13 3 -3 4 -12 1 -19z m876 3 c-5 -3 -13
-15 -16 -25 -4 -10 -10 -17 -13 -14 -8 9 18 58 29 51 5 -3 6 -8 0 -12z m-923
0 c0 -12 -20 -25 -27 -18 -7 7 6 27 18 27 5 0 9 -4 9 -9z m21 -25 c-6 -7 -9
-21 -5 -30 3 -9 1 -16 -5 -16 -14 0 -14 21 0 57 7 16 13 23 16 15 3 -7 0 -19
-6 -26z m1221 12 c-19 -19 -14 -38 11 -48 12 -5 15 -9 7 -9 -8 0 -24 6 -34 14
-19 14 -19 15 -1 35 10 11 21 20 24 20 3 0 0 -5 -7 -12z m158 -8 c-8 -6 -22
-10 -30 -9 -9 0 -5 6 10 14 27 14 44 10 20 -5z m-1455 -24 c-5 -19 -5 -19 8
-4 8 10 18 13 26 9 9 -6 7 -10 -8 -14 -15 -4 -19 -10 -15 -24 6 -14 3 -14 -16
5 -12 13 -28 21 -35 18 -8 -3 -11 2 -8 12 2 10 15 18 29 18 21 2 24 -2 19 -20z
m1059 -1 c-4 -8 -10 -12 -15 -9 -11 6 -2 24 11 24 5 0 7 -7 4 -15z m68 -7 c-7
-7 -12 -8 -12 -2 0 14 12 26 19 19 2 -3 -1 -11 -7 -17z m278 -3 c-7 -9 -15
-13 -19 -10 -3 3 1 10 9 15 21 14 24 12 10 -5z m-1334 -29 c14 4 24 2 24 -5 0
-6 -3 -10 -7 -10 -20 3 -26 -2 -13 -11 10 -6 11 -10 3 -10 -7 0 -13 -5 -13
-11 0 -6 7 -9 15 -5 17 6 45 -2 45 -14 0 -5 -10 -6 -22 -4 -22 4 -21 4 1 -6
15 -7 21 -14 15 -20 -13 -13 -54 -1 -48 15 3 7 1 16 -5 20 -6 3 -11 15 -11 27
0 14 -5 18 -15 14 -10 -3 -15 1 -15 13 0 24 14 37 18 17 3 -12 10 -14 28 -10z
m914 14 c0 -5 -5 -10 -11 -10 -5 0 -7 5 -4 10 3 6 8 10 11 10 2 0 4 -4 4 -10z
m389 -3 c-40 -28 -92 -58 -95 -54 -5 5 89 65 95 60 2 -1 2 -4 0 -6z m-252 -29
c-3 -7 -5 -2 -5 12 0 14 2 19 5 13 2 -7 2 -19 0 -25z m93 12 c0 -5 -2 -10 -4
-10 -3 0 -8 5 -11 10 -3 6 -1 10 4 10 6 0 11 -4 11 -10z m-1210 -19 c0 -5 -6
-11 -12 -14 -7 -2 -9 -8 -5 -13 4 -5 12 -2 17 5 4 8 15 11 25 8 24 -10 8 -27
-26 -27 -21 0 -29 5 -29 18 0 10 3 22 7 25 9 10 23 9 23 -2z m967 -28 c0 -16
-1 -20 -4 -10 -2 9 -12 17 -21 18 -14 0 -13 2 3 9 11 5 20 9 20 9 0 1 1 -11 2
-26z m-1013 -8 c3 -8 1 -15 -4 -15 -6 0 -10 7 -10 15 0 8 2 15 4 15 2 0 6 -7
10 -15z m919 -40 c-3 -9 -8 -14 -10 -11 -3 3 -2 9 2 15 9 16 15 13 8 -4z m237
11 c0 -2 -9 -6 -20 -9 -11 -3 -20 -1 -20 4 0 5 9 9 20 9 11 0 20 -2 20 -4z
m59 -26 c-24 -16 -48 -30 -53 -30 -5 0 11 13 35 30 24 16 48 30 53 30 5 0 -11
-13 -35 -30z m-1204 10 c3 -5 -1 -10 -9 -10 -9 0 -16 5 -16 10 0 6 4 10 9 10
6 0 13 -4 16 -10z m-5 -41 c0 -6 -4 -7 -10 -4 -5 3 -10 11 -10 16 0 6 5 7 10
4 6 -3 10 -11 10 -16z m896 -6 c-10 -10 -19 5 -10 18 6 11 8 11 12 0 2 -7 1
-15 -2 -18z m-50 -33 c-23 -62 -56 -125 -56 -109 0 18 60 152 66 147 2 -2 -3
-19 -10 -38z m174 36 c0 -3 -4 -8 -10 -11 -5 -3 -10 -1 -10 4 0 6 5 11 10 11
6 0 10 -2 10 -4z m-895 -25 c-3 -6 -11 -8 -17 -5 -6 4 -5 9 3 15 16 10 23 4
14 -10z m1005 15 c0 -3 -4 -8 -10 -11 -5 -3 -10 -1 -10 4 0 6 5 11 10 11 6 0
10 -2 10 -4z m-228 -28 c-7 -7 -12 -8 -12 -2 0 14 12 26 19 19 2 -3 -1 -11 -7
-17z m163 -18 c-3 -5 -11 -10 -16 -10 -6 0 -7 5 -4 10 3 6 11 10 16 10 6 0 7
-4 4 -10z m-60 -40 c-3 -5 -12 -10 -18 -10 -7 0 -6 4 3 10 19 12 23 12 15 0z
m-155 -24 c0 -3 -4 -8 -10 -11 -5 -3 -10 -1 -10 4 0 6 5 11 10 11 6 0 10 -2
10 -4z m80 -20 c0 -3 -4 -8 -10 -11 -5 -3 -10 -1 -10 4 0 6 5 11 10 11 6 0 10
-2 10 -4z m-164 -57 c-9 -19 -15 -29 -16 -22 0 15 22 64 27 60 2 -2 -3 -19
-11 -38z m81 19 c-3 -8 -6 -5 -6 6 -1 11 2 17 5 13 3 -3 4 -12 1 -19z m48 12
c-3 -5 -12 -10 -18 -10 -7 0 -6 4 3 10 19 12 23 12 15 0z m-70 -20 c3 -6 -1
-7 -9 -4 -18 7 -21 14 -7 14 6 0 13 -4 16 -10z m-85 -70 c-6 -11 -13 -20 -16
-20 -2 0 0 9 6 20 6 11 13 20 16 20 2 0 0 -9 -6 -20z m-783 -812 c-2 -13 -4
-5 -4 17 -1 22 1 32 4 23 2 -10 2 -28 0 -40z m0 -280 c-3 -8 -6 -5 -6 6 -1 11
2 17 5 13 3 -3 4 -12 1 -19z"/>
<path d="M1793 3598 c-25 -31 -50 -97 -42 -110 7 -10 9 -10 10 2 1 8 1 18 0
22 0 4 6 5 14 2 8 -4 15 -15 15 -26 0 -10 4 -16 10 -13 15 9 6 43 -16 60 -10
8 -14 15 -8 15 6 0 16 12 23 26 13 29 10 42 -6 22z"/>
<path d="M1885 3500 c-3 -6 1 -7 9 -4 18 7 21 14 7 14 -6 0 -13 -4 -16 -10z"/>
<path d="M1771 3488 c-1 -19 -27 -25 -33 -8 -2 6 -20 -21 -41 -60 -21 -38 -36
-70 -35 -71 39 -10 81 1 65 17 -3 4 -13 2 -21 -5 -11 -9 -15 -8 -19 3 -4 11 2
14 28 11 42 -4 78 19 55 35 -8 5 -10 10 -5 10 6 0 3 5 -5 10 -11 7 -12 12 -4
20 9 9 13 5 18 -14 8 -34 20 -33 47 4 12 16 27 26 32 23 6 -3 7 -1 3 5 -13 21
-46 14 -46 -9 0 -17 -2 -18 -14 -7 -8 8 -16 23 -19 34 -4 16 -5 16 -6 2z m-35
-50 c-2 -13 1 -29 6 -35 8 -9 6 -13 -5 -13 -23 0 -29 15 -17 44 12 32 21 34
16 4z"/>
<path d="M2190 3770 c-8 -5 -11 -12 -8 -16 4 -3 14 1 23 10 18 17 9 21 -15 6z"/>
<path d="M2977 3143 c-12 -11 -8 -23 8 -23 8 0 15 -4 15 -10 0 -5 -8 -7 -17
-4 -15 5 -16 4 -3 -5 22 -15 35 4 18 28 -8 12 -18 18 -21 14z"/>
<path d="M3014 3134 c3 -9 6 -18 6 -20 0 -2 7 -4 15 -4 8 0 15 -4 15 -10 0 -5
9 -10 20 -10 13 0 20 -7 20 -20 0 -24 -8 -25 -31 -4 -11 10 -19 12 -24 5 -3
-6 1 -11 10 -11 9 0 14 -4 10 -10 -8 -13 -35 -1 -35 16 0 8 -7 14 -15 14 -8 0
-15 -7 -15 -15 0 -8 -5 -24 -12 -35 -10 -16 -9 -22 11 -39 13 -11 21 -26 18
-34 -2 -7 1 -26 9 -42 l14 -30 -3 33 c-2 17 1 32 6 32 5 0 7 6 4 14 -3 7 1 23
9 35 11 15 22 19 43 15 31 -7 37 9 28 76 -2 14 0 32 4 40 6 12 -1 15 -37 15
-31 0 -45 -4 -48 -15 -3 -12 -4 -11 -5 3 0 9 -6 17 -12 17 -6 0 -8 -7 -5 -16z
m76 -14 c0 -5 -8 -10 -17 -10 -15 0 -16 2 -3 10 19 12 20 12 20 0z m-76 -96
c9 -3 16 -13 16 -20 0 -12 -4 -12 -20 -4 -11 6 -20 15 -20 20 0 12 3 12 24 4z"/>
<path d="M3135 3128 l-20 -21 22 12 c23 12 40 31 26 30 -4 0 -17 -10 -28 -21z"/>
<path d="M3320 3138 l-45 -6 46 1 47 2 0 -39 c1 -42 11 -63 13 -25 l1 24 7
-25 c5 -14 4 -33 -1 -44 -7 -12 -6 -22 1 -29 8 -8 11 -4 11 16 0 15 5 27 11
27 6 0 9 -9 6 -20 -3 -11 -1 -23 4 -26 8 -5 11 6 13 54 1 17 14 32 29 32 11 0
8 -35 -5 -48 -9 -9 -2 -12 32 -11 40 1 41 2 15 8 -21 4 -26 9 -17 15 10 6 10
11 2 21 -7 8 -9 18 -6 24 3 5 -7 12 -24 16 -41 9 -48 25 -7 18 22 -3 37 0 45
9 10 13 1 15 -61 14 -39 -1 -92 -4 -117 -8z m78 -9 c-5 -10 24 -39 33 -33 5 3
9 0 9 -5 0 -6 -4 -11 -9 -11 -5 0 -11 -8 -14 -17 -3 -14 -6 -11 -11 10 -5 15
-12 27 -17 27 -5 0 -9 9 -9 21 0 11 5 19 11 17 6 -2 9 -6 7 -9z"/>
<path d="M3535 3140 c3 -5 8 -10 11 -10 2 0 4 5 4 10 0 6 -5 10 -11 10 -5 0
-7 -4 -4 -10z"/>
<path d="M3560 3120 c0 -11 5 -20 10 -20 6 0 10 9 10 20 0 11 -4 20 -10 20 -5
0 -10 -9 -10 -20z"/>
<path d="M3613 3133 c15 -2 39 -2 55 0 15 2 2 4 -28 4 -30 0 -43 -2 -27 -4z"/>
<path d="M3934 3129 c12 -8 25 -8 40 -1 18 9 16 11 -19 11 -33 0 -37 -1 -21
-10z"/>
<path d="M4008 3133 c6 -2 18 -2 25 0 6 3 1 5 -13 5 -14 0 -19 -2 -12 -5z"/>
<path d="M4060 3130 c0 -5 7 -7 15 -4 8 4 15 8 15 10 0 2 -7 4 -15 4 -8 0 -15
-4 -15 -10z"/>
<path d="M3288 3113 c7 -3 16 -2 19 1 4 3 -2 6 -13 5 -11 0 -14 -3 -6 -6z"/>
<path d="M3320 3111 c0 -5 -9 -11 -21 -14 l-21 -6 21 -22 c12 -13 21 -26 21
-31 0 -15 28 -8 34 8 8 21 8 24 -5 24 -5 0 -7 -4 -4 -10 3 -5 2 -10 -4 -10
-17 0 -23 20 -11 35 7 8 16 13 19 10 4 -2 8 2 8 10 0 8 -9 15 -19 15 -10 0
-18 -4 -18 -9z"/>
<path d="M3962 3109 c-13 -5 -26 -18 -29 -29 -3 -11 -10 -20 -15 -20 -5 0 -8
-10 -6 -22 2 -17 9 -22 26 -20 20 2 22 -1 17 -20 -7 -23 -7 -23 8 -3 8 11 13
23 11 27 -3 5 1 8 9 8 10 0 13 12 10 43 -2 32 0 38 8 27 9 -12 10 -12 7 -1 -5
19 -18 22 -46 10z m18 -37 c0 -5 -9 -17 -20 -27 -22 -20 -26 -14 -10 16 11 19
30 26 30 11z"/>
<path d="M4025 3110 c-3 -5 1 -10 10 -10 9 0 13 5 10 10 -3 6 -8 10 -10 10 -2
0 -7 -4 -10 -10z"/>
<path d="M4017 3083 c-4 -3 -7 -13 -7 -20 0 -12 3 -12 15 1 8 8 15 17 15 20 0
8 -15 7 -23 -1z"/>
<path d="M3365 3030 c3 -5 8 -10 11 -10 2 0 4 5 4 10 0 6 -5 10 -11 10 -5 0
-7 -4 -4 -10z"/>
<path d="M3825 3010 c-3 -5 -5 -10 -3 -11 29 -7 36 -5 31 7 -6 16 -19 18 -28
4z"/>
<path d="M3500 3000 c0 -5 5 -10 10 -10 6 0 10 5 10 10 0 6 -4 10 -10 10 -5 0
-10 -4 -10 -10z"/>
<path d="M2971 2958 c-1 -16 4 -28 9 -28 12 0 12 8 0 35 -8 18 -9 17 -9 -7z"/>
<path d="M2980 2895 c0 -15 4 -24 10 -20 6 3 10 12 10 20 0 8 -4 17 -10 20 -6
4 -10 -5 -10 -20z"/>
<path d="M3120 2909 c0 -5 5 -7 10 -4 6 3 10 8 10 11 0 2 -4 4 -10 4 -5 0 -10
-5 -10 -11z"/>
<path d="M3610 2910 c0 -5 5 -10 10 -10 6 0 10 5 10 10 0 6 -4 10 -10 10 -5 0
-10 -4 -10 -10z"/>
<path d="M3198 2863 c7 -3 16 -2 19 1 4 3 -2 6 -13 5 -11 0 -14 -3 -6 -6z"/>
<path d="M3060 2835 c0 -8 5 -15 10 -15 6 0 10 7 10 15 0 8 -4 15 -10 15 -5 0
-10 -7 -10 -15z"/>
<path d="M3746 2818 c-3 -13 -1 -25 5 -26 5 -2 -2 -15 -16 -28 -15 -13 -31
-22 -36 -19 -5 3 -6 -1 -3 -9 8 -20 33 -4 60 35 10 16 22 29 27 29 4 0 7 5 7
11 0 8 -6 7 -16 -2 -15 -12 -16 -11 -10 9 4 12 3 22 -2 22 -5 0 -12 -10 -16
-22z"/>
<path d="M3130 2800 c0 -5 5 -10 10 -10 6 0 10 5 10 10 0 6 -4 10 -10 10 -5 0
-10 -4 -10 -10z"/>
<path d="M3360 2733 c0 -4 5 -15 10 -23 8 -13 10 -13 10 2 0 9 -4 20 -10 23
-5 3 -10 3 -10 -2z"/>
<path d="M3027 2713 c-3 -5 -1 -17 4 -28 7 -17 8 -17 8 8 1 27 -4 34 -12 20z"/>
<path d="M3682 2715 c4 -4 0 -13 -9 -20 -9 -7 -12 -15 -7 -18 6 -3 15 3 22 13
9 15 9 21 -1 26 -6 4 -9 4 -5 -1z"/>
<path d="M3543 2675 c-19 -21 -16 -24 18 -23 17 1 35 -5 40 -13 7 -11 9 -11 9
-1 0 8 -9 16 -20 19 -11 3 -20 12 -20 19 0 18 -11 17 -27 -1z"/>
<path d="M3620 2634 c0 -8 5 -12 10 -9 6 3 10 10 10 16 0 5 -4 9 -10 9 -5 0
-10 -7 -10 -16z"/>
<path d="M3092 2610 c0 -19 2 -27 5 -17 2 9 2 25 0 35 -3 9 -5 1 -5 -18z"/>
<path d="M3345 2600 c-3 -5 -3 -10 2 -10 4 0 19 -3 33 -6 24 -5 24 -5 6 10
-23 19 -32 20 -41 6z"/>
<path d="M3340 2572 c0 -5 7 -13 16 -16 10 -4 14 -1 12 6 -5 15 -28 23 -28 10z"/>
<path d="M3222 2548 c1 -13 -2 -23 -7 -23 -5 0 -8 8 -7 18 2 9 -2 17 -9 17 -8
0 -9 -10 -5 -31 3 -17 6 -38 6 -45 0 -8 10 -14 21 -14 18 0 19 2 9 15 -9 10
-9 15 -1 15 6 0 11 16 11 35 0 19 -5 35 -11 35 -6 0 -9 -10 -7 -22z"/>
<path d="M3449 2543 c-1 -5 -1 -11 0 -15 0 -5 -4 -8 -10 -8 -5 0 -7 -4 -4 -10
11 -18 27 -11 22 10 -3 10 0 21 7 24 7 3 7 5 -1 5 -7 1 -14 -2 -14 -6z"/>
<path d="M3377 2533 c19 -7 -4 -46 -23 -39 -8 3 -19 -4 -25 -16 -10 -19 -9
-20 7 -13 11 4 27 7 37 7 9 0 17 5 17 13 0 7 7 16 16 19 8 3 13 10 10 15 -4 5
0 12 6 14 7 3 -3 5 -22 5 -19 0 -29 -2 -23 -5z"/>
<path d="M3470 2498 c-10 -33 -18 -44 -29 -40 -8 3 -12 1 -9 -4 3 -5 -9 -10
-28 -11 -19 -1 -34 3 -34 10 0 6 -9 1 -21 -12 -12 -12 -18 -25 -14 -29 3 -3 9
-2 13 3 4 6 23 11 42 12 59 4 74 9 84 29 6 10 14 21 18 24 4 3 4 19 0 35 l-8
30 -14 -47z"/>
<path d="M3406 2475 c-3 -8 -2 -15 3 -15 5 0 14 7 21 15 10 12 10 15 -3 15 -8
0 -17 -7 -21 -15z"/>
<path d="M3213 2284 c1 -43 -12 -96 -29 -121 -12 -20 -12 -23 0 -23 7 0 17 11
20 25 4 14 10 23 15 20 9 -5 41 37 41 55 0 6 -5 16 -10 23 -6 7 -17 21 -24 31
-12 18 -13 18 -13 -10z m19 -66 c-8 -8 -9 -4 -5 13 4 13 8 18 11 10 2 -7 -1
-18 -6 -23z"/>
<path d="M3085 2049 c-4 -6 -5 -12 -2 -15 2 -3 7 2 10 11 7 17 1 20 -8 4z"/>
<path d="M5311 3083 c12 -15 12 -16 -3 -10 -14 5 -18 1 -18 -19 0 -14 -4 -22
-10 -19 -5 3 -10 1 -10 -4 0 -20 18 -11 38 17 19 27 19 52 0 52 -6 0 -4 -7 3
-17z"/>
<path d="M4977 2696 c-4 -10 -1 -13 9 -9 15 6 19 23 5 23 -5 0 -11 -7 -14 -14z"/>
</g>
</svg>
